<?xml version="1.0" encoding="UTF-8"?>
<svg width="611px" height="135px" viewBox="0 0 611 135" version="1.1" xmlns="http://www.w3.org/2000/svg" xmlns:xlink="http://www.w3.org/1999/xlink">
    <!-- Generator: Sketch 48.2 (47327) - http://www.bohemiancoding.com/sketch -->
    <title>AFLETE</title>
    <desc>Created with Sketch.</desc>
    <defs></defs>
    <g id="Artboard-Copy-3" stroke="none" stroke-width="1" fill="none" fill-rule="evenodd" transform="translate(-650.000000, -108.000000)">
        <path d="M774.9,241.2 L773.1,243 L757.08,243 L755.28,241.2 L738,197.1 L687.6,197.1 L670.32,241.2 L668.52,243 L652.5,243 L650.7,241.2 L703.08,109.8 L704.88,108 L720.72,108 L722.52,109.8 L774.9,241.2 Z M731.7,180.9 L708.12,120.6 L710.64,138.42 L693.9,180.9 L731.7,180.9 Z M863.1,109.8 L863.1,122.4 L861.3,124.2 L809.1,124.2 L809.1,168.3 L857.7,168.3 L859.5,170.1 L859.5,182.7 L857.7,184.5 L809.1,184.5 L809.1,241.2 L807.3,243 L792.9,243 L791.1,241.2 L791.1,109.8 L792.9,108 L861.3,108 L863.1,109.8 Z M953.1,228.6 L953.1,241.2 L951.3,243 L882.9,243 L881.1,241.2 L881.1,109.8 L882.9,108 L897.3,108 L899.1,109.8 L899.1,226.8 L951.3,226.8 L953.1,228.6 Z M1046.7,228.6 L1046.7,241.2 L1044.9,243 L972.9,243 L971.1,241.2 L971.1,109.8 L972.9,108 L1041.3,108 L1043.1,109.8 L1043.1,122.4 L1041.3,124.2 L989.1,124.2 L989.1,164.7 L1034.1,164.7 L1035.9,166.5 L1035.9,179.1 L1034.1,180.9 L989.1,180.9 L989.1,226.8 L1044.9,226.8 L1046.7,228.6 Z M1167.3,109.8 L1167.3,122.4 L1165.5,124.2 L1122.3,124.2 L1122.3,241.2 L1120.5,243 L1106.1,243 L1104.3,241.2 L1104.3,124.2 L1061.1,124.2 L1059.3,122.4 L1059.3,109.8 L1061.1,108 L1165.5,108 L1167.3,109.8 Z M1260.9,228.6 L1260.9,241.2 L1259.1,243 L1187.1,243 L1185.3,241.2 L1185.3,109.8 L1187.1,108 L1255.5,108 L1257.3,109.8 L1257.3,122.4 L1255.5,124.2 L1203.3,124.2 L1203.3,164.7 L1248.3,164.7 L1250.1,166.5 L1250.1,179.1 L1248.3,180.9 L1203.3,180.9 L1203.3,226.8 L1259.1,226.8 L1260.9,228.6 Z" id="AFLETE" fill="#FFFFFF"></path>
    </g>
</svg>